<?xml version="1.0" encoding="UTF-8" standalone="no"?>
<!-- Created with Inkscape (http://www.inkscape.org/) -->

<svg
   version="1.1"
   id="svg1"
   width="76"
   height="76"
   viewBox="0 0 76 76"
   sodipodi:docname="logo-76x76.svg"
   inkscape:version="1.3.2 (091e20ef0f, 2023-11-25, custom)"
   xmlns:inkscape="http://www.inkscape.org/namespaces/inkscape"
   xmlns:sodipodi="http://sodipodi.sourceforge.net/DTD/sodipodi-0.dtd"
   xmlns="http://www.w3.org/2000/svg"
   xmlns:svg="http://www.w3.org/2000/svg">
  <defs
     id="defs1" />
  <sodipodi:namedview
     id="namedview1"
     pagecolor="#ffffff"
     bordercolor="#000000"
     borderopacity="0.25"
     inkscape:showpageshadow="2"
     inkscape:pageopacity="0.0"
     inkscape:pagecheckerboard="0"
     inkscape:deskcolor="#d1d1d1"
     inkscape:zoom="4.2301036"
     inkscape:cx="-0.23640083"
     inkscape:cy="47.161965"
     inkscape:window-width="1920"
     inkscape:window-height="1028"
     inkscape:window-x="0"
     inkscape:window-y="0"
     inkscape:window-maximized="1"
     inkscape:current-layer="g1" />
  <g
     inkscape:groupmode="layer"
     inkscape:label="Image"
     id="g1">
    <circle
       style="display:inline;opacity:1;fill:#ffffff;fill-opacity:1;stroke:#000000;stroke-width:0;stroke-dasharray:none"
       id="path1"
       cx="38"
       cy="38"
       r="36" />
    <path
       style="display:inline;fill:#203a55;stroke-width:0.109259"
       d="M 35.022884,75.948882 C 34.78354,75.913515 33.646579,75.749653 32.496285,75.58478 24.525475,74.442373 16.572791,70.436786 11.002102,64.758658 4.9480205,58.587808 1.2935833,51.11364 0.203292,42.672597 -0.14246316,39.995772 -0.0318167,34.513539 0.41870582,32.000031 1.8158854,24.204887 5.4932772,17.091776 11.013027,11.507626 17.613026,4.8306255 26.455685,0.77005738 35.8796,0.08884444 38.328425,-0.08816497 40.178935,-0.00856583 43.086605,0.39890271 53.823758,1.9035289 63.855981,8.2704614 69.8269,17.369585 73.986836,23.708934 76,30.475452 76,38.118209 c 0,12.50988 -6.043584,24.167329 -16.084213,31.024787 -4.990098,3.408094 -10.548441,5.602108 -16.552426,6.53365 -1.459053,0.226372 -7.350217,0.418673 -8.340477,0.272236 z m -5.236642,-7.82531 c 0.979035,-0.274186 1.461343,-0.678017 2.312212,-1.936002 0.174419,-0.25789 0.235925,-0.256262 1.770148,0.04712 1.994501,0.394353 5.060005,0.530154 6.883826,0.304945 1.343441,-0.165898 3.967308,-0.659822 4.404957,-0.829215 0.149449,-0.05787 0.309049,0.09261 0.505002,0.476195 0.655252,1.282644 1.771512,1.952652 3.244543,1.947456 2.39228,-0.0084 3.832124,-1.89683 3.399904,-4.459072 l -0.09872,-0.585222 1.147626,-0.759185 c 1.147214,-0.758915 1.147721,-0.759077 1.415953,-0.45992 0.737975,0.823069 2.553641,1.232503 3.568668,0.804732 1.443433,-0.608316 2.284151,-1.841266 2.284151,-3.349814 0,-0.469593 -0.09704,-1.088014 -0.215596,-1.374276 l -0.215597,-0.520502 0.917651,-1.340208 c 1.271904,-1.857602 2.273178,-3.663578 3.342524,-6.028858 0.899389,-1.989348 0.920015,-2.019429 1.504266,-2.193427 2.010811,-0.598847 3.063144,-2.501524 2.476276,-4.477235 -0.213722,-0.71955 -1.010803,-1.663996 -1.70642,-2.02194 l -0.538124,-0.276903 0.130556,-1.144518 c 0.181669,-1.592544 0.02686,-4.750735 -0.338867,-6.918849 -0.237227,-1.405916 -0.26665,-1.837948 -0.128223,-1.884482 0.431663,-0.145106 1.372326,-1.179756 1.682879,-1.850985 0.596044,-1.288279 0.368592,-2.583775 -0.661369,-3.766967 -0.65179,-0.748765 -1.516294,-1.13325 -2.560645,-1.13885 l -0.860776,-0.0046 -0.867899,-1.468936 c -0.477365,-0.807938 -1.271989,-1.984377 -1.765854,-2.614328 l -0.897926,-1.145369 0.308911,-0.629758 c 0.420733,-0.857726 0.420038,-2.31587 -0.0016,-3.130131 -0.684055,-1.321364 -1.682709,-1.893618 -3.313087,-1.898475 -1.037018,-0.003 -1.23918,0.04234 -1.773776,0.398848 -0.331848,0.22128 -0.657076,0.402333 -0.722731,0.402333 -0.06565,0 -0.76874,-0.432071 -1.562414,-0.96014 -0.793676,-0.528081 -2.242644,-1.354766 -3.219929,-1.837083 -1.587988,-0.783712 -1.776884,-0.917027 -1.776884,-1.254025 0,-1.7761105 -1.736094,-3.4074211 -3.626294,-3.4074211 -1.392352,0 -2.577364,0.7367548 -3.173584,1.9731118 l -0.2746,0.5694134 -2.591193,0.030293 c -2.265514,0.0266 -4.532002,0.2581067 -5.645853,0.5770574 C 32.30782,10.05722 32.162533,9.9325795 31.802214,9.3478953 31.242889,8.4403038 30.325589,7.870636 29.241852,7.7578194 c -1.062095,-0.1105691 -1.667,0.023343 -2.441728,0.5410657 -1.212132,0.8098236 -1.744588,2.3788699 -1.390089,4.0963669 l 0.105699,0.512065 -1.244646,0.804667 c -0.684559,0.442569 -1.326813,0.864392 -1.427233,0.937384 -0.121811,0.0886 -0.347556,0.0058 -0.678318,-0.248683 -1.625258,-1.250351 -3.582177,-1.273475 -4.894496,-0.05787 -0.907173,0.840332 -1.27364,2.592984 -0.815837,3.901749 0.243572,0.696312 0.268678,0.6284 -0.688099,1.861014 -1.077087,1.387619 -2.880768,4.383275 -3.671544,6.097914 -0.702765,1.523806 -0.715736,1.540228 -1.293242,1.637148 -2.8808641,0.48348 -3.9976634,4.085046 -1.8778564,6.055897 0.3532636,0.328439 0.8019433,0.670527 0.9970703,0.760195 0.3046171,0.139981 0.3404671,0.227457 0.2535771,0.618543 -0.133548,0.601062 -0.130514,5.004693 0.0036,5.612174 0.10105,0.456869 0.07754,0.488984 -0.6178303,0.844404 -1.6643703,0.850689 -2.3214105,3.017915 -1.440752,4.752293 0.4951928,0.975232 1.7602531,1.90196 2.5963303,1.90196 0.224913,0 0.499594,0.416154 1.231265,1.865382 1.148246,2.274353 2.237497,4.041303 3.652069,5.924285 l 1.070834,1.425424 -0.210143,0.908602 c -0.320226,1.384553 -0.0036,2.51317 0.962177,3.429675 0.938278,0.890404 2.03898,1.192552 3.328369,0.913639 0.573796,-0.124119 0.927707,-0.323597 1.452395,-0.818618 l 0.693735,-0.654512 1.275992,0.921457 c 0.701798,0.506801 1.2966,0.934225 1.321789,0.949826 0.02525,0.01552 -0.02867,0.307311 -0.119673,0.648236 -0.2391,0.895639 -0.05534,1.926456 0.487083,2.732627 0.936367,1.391603 2.354775,1.930761 3.92358,1.491412 z m 5.309169,-3.211405 c -1.570925,-0.22876 -2.47911,-0.476737 -2.599979,-0.709883 -0.06694,-0.129092 -0.165681,-0.441582 -0.21945,-0.694423 -0.109136,-0.513196 0.150642,-0.865988 3.021853,-4.103609 l 1.43535,-1.618527 0.711066,0.372095 c 0.951753,0.49805 2.149916,0.509385 3.164803,0.02996 l 0.724286,-0.342162 0.326014,0.291644 c 0.663807,0.593809 3.818229,3.471479 4.131129,3.768677 l 0.323866,0.307615 -0.48054,0.948925 -0.480539,0.948926 -1.329559,0.319254 c -0.731259,0.175592 -1.900944,0.389935 -2.599308,0.476324 -1.43466,0.17746 -4.925706,0.180447 -6.128985,0.0052 z m -9.907166,-3.763468 -1.131533,-0.838747 8.72e-4,-18.434372 c 5.41e-4,-10.138903 0.0037,-20.181847 0.0074,-22.317656 l 0.0065,-3.883289 1.168585,-0.761879 c 0.642751,-0.419032 1.228634,-0.761879 1.301989,-0.761879 0.07334,0 0.347086,0.131427 0.608295,0.292068 0.261223,0.160632 0.58136,0.292307 0.71145,0.292611 0.195727,4.41e-4 0.265322,0.297149 0.403469,1.719628 0.09182,0.945494 0.228028,2.184554 0.302658,2.753469 0.07465,0.568914 0.17898,1.65536 0.231882,2.414324 l 0.0962,1.379929 -0.536159,0.19557 c -2.908029,1.060634 -2.930494,5.344155 -0.03434,6.54572 l 0.67669,0.280744 5.44e-4,7.852518 5.46e-4,7.852523 -0.496229,0.165192 c -1.972336,0.656553 -2.998372,3.063835 -2.10195,4.931583 0.352063,0.733552 1.268854,1.577016 1.96655,1.809263 0.58898,0.196048 0.576111,-0.09283 0.191711,4.302416 -0.356675,4.078122 -0.392463,4.322529 -0.632929,4.322529 -0.104173,0 -0.496307,0.164595 -0.871413,0.365756 -0.375106,0.201183 -0.694876,0.364637 -0.710601,0.363258 -0.01574,-0.0015 -0.537776,-0.379946 -1.16012,-0.841255 z m 5.16349,0.356472 c -0.335336,-0.174552 -0.612601,-0.416142 -0.616141,-0.536844 -0.0095,-0.32782 0.71129,-8.090686 0.75394,-8.118548 0.02035,-0.01303 0.261656,-0.11452 0.536551,-0.225176 0.274893,-0.110668 0.714032,-0.39088 0.975862,-0.622756 l 0.476054,-0.421593 0.474658,0.335041 c 0.26106,0.184267 0.948977,0.692381 1.528704,1.129136 l 1.054048,0.794102 -0.08405,0.675379 c -0.0518,0.416165 -0.002,0.943269 0.129336,1.373396 l 0.213397,0.698017 -0.893584,0.984482 c -0.49147,0.541468 -1.535604,1.725149 -2.320301,2.630408 -0.784698,0.905258 -1.469937,1.64062 -1.522754,1.634135 -0.05282,-0.0065 -0.3704,-0.154639 -0.705734,-0.329189 z m 19.984357,-0.11856 C 49.501631,60.943412 48.921844,60.880288 47.890097,61.12034 l -0.6226,0.144833 -1.118023,-1.079069 C 45.534561,59.592621 44.39614,58.531861 43.619649,57.828872 42.4651,56.783609 42.232312,56.504596 42.342123,56.297643 42.415983,56.158455 42.51923,55.718794 42.571614,55.320615 42.9714,52.280862 39.54038,50.233433 36.970169,51.977999 l -0.7397,0.5021 -0.82137,-0.630942 C 34.957346,51.502131 34.27768,51.005775 33.89873,50.746123 l -0.688992,-0.47208 -0.0015,-0.98053 c -0.0011,-0.823396 -0.07206,-1.104904 -0.442613,-1.756625 -0.421866,-0.741977 -1.503703,-1.637928 -1.977776,-1.637928 -0.201263,0 -0.202431,-0.05592 -0.228651,-10.890208 l -0.01195,-4.964872 0.46251,-0.15707 c 0.722333,-0.245296 1.366904,-0.844947 1.829226,-1.701723 0.341072,-0.63208 0.422564,-0.959554 0.415921,-1.671453 l -0.0082,-0.885357 0.888083,-0.60471 c 0.488443,-0.332587 1.320779,-0.913184 1.849638,-1.290193 l 0.961557,-0.685486 0.561485,0.372442 c 1.181676,0.783822 2.792781,0.789434 3.954844,0.01357 0.859217,-0.573518 1.610927,-1.79092 1.610927,-2.608925 0,-0.301513 0.210901,-0.388708 2.50214,-1.034404 1.376178,-0.387827 3.636812,-1.027606 5.023635,-1.42173 1.386819,-0.394125 2.546686,-0.691177 2.577478,-0.660114 0.05837,0.05884 -2.622564,2.596886 -6.982458,6.610116 -0.874183,0.804677 -2.407215,2.225389 -3.406737,3.157141 -0.999519,0.931749 -3.122774,2.9043 -4.718345,4.383434 -4.572058,4.238415 -7.248495,6.766293 -7.300504,6.895275 -0.05909,0.146539 -0.06717,0.138667 2.15117,2.096054 0.997228,0.879928 2.53115,2.265113 3.408713,3.078199 1.543303,1.429906 3.732161,3.402195 12.873342,11.599634 5.132487,4.602606 4.975061,4.331758 3.229324,5.555886 -0.597281,0.418813 -1.135787,0.752193 -1.196677,0.740848 -0.06089,-0.0114 -0.465101,-0.208871 -0.898241,-0.438912 z M 16.907453,55.363852 c -1.200245,-1.636993 -2.281022,-3.357999 -3.364761,-5.357979 -0.929663,-1.715636 -0.969454,-1.827274 -0.70399,-1.975108 0.363337,-0.202345 1.541146,-1.389897 1.741122,-1.755534 0.151621,-0.277238 0.188559,-0.276043 2.139512,0.06861 l 1.985227,0.350718 v 4.645939 4.645946 l -0.427952,0.223202 c -0.235375,0.122773 -0.463366,0.223201 -0.506646,0.223201 -0.04328,0 -0.43141,-0.481069 -0.862512,-1.069038 z m 41.396232,0.666531 c -0.359002,-0.121548 -0.727016,-0.261767 -0.817814,-0.311586 -0.134005,-0.07353 -7.630913,-6.782972 -9.843487,-8.809535 -0.319113,-0.292284 -2.40786,-2.161119 -4.641653,-4.152962 -2.233799,-1.991844 -4.14519,-3.700653 -4.247535,-3.797356 -0.190082,-0.179577 1.914854,-2.239394 8.679662,-8.493607 1.391691,-1.286654 3.085176,-2.869101 3.763292,-3.516545 3.362725,-3.210632 6.908458,-6.442524 7.361111,-6.709557 0.109283,-0.06449 0.327023,0.05603 0.549314,0.304 0.466669,0.520579 2.968457,4.278534 2.968457,4.458944 0,0.07416 -0.163564,0.29982 -0.36348,0.50146 -1.032953,1.041872 -1.313553,2.723049 -0.674593,4.04169 l 0.334757,0.690851 -1.879093,3.405596 -1.879098,3.405597 -0.941332,-0.04885 c -1.585804,-0.08219 -2.967923,0.747188 -3.537935,2.123196 -0.115331,0.278464 -0.305987,0.486128 -0.446273,0.486128 -0.134682,0 -2.043058,-0.293664 -4.240816,-0.652579 -4.975966,-0.812636 -5.877967,-0.910034 -6.169263,-0.666194 -0.302994,0.253622 -0.281595,0.982756 0.03382,1.152415 0.230632,0.124064 5.97881,1.088792 8.81189,1.478919 1.7454,0.240355 1.716423,0.22699 1.996413,0.919926 0.286599,0.709286 1.091866,1.613135 1.764638,1.980657 0.302685,0.165355 0.794118,0.243341 1.533341,0.243341 1.231662,0 1.769783,-0.216252 2.646727,-1.063674 l 0.543475,-0.525182 0.944868,0.504727 0.944867,0.504716 -0.08667,0.595623 c -0.180907,1.243107 0.542389,2.733293 1.642154,3.383363 0.78461,0.463784 0.78952,0.432157 -0.471818,3.039043 -1.145465,2.367405 -3.269801,5.812508 -3.552679,5.761492 -0.0399,-0.0074 -0.366256,-0.112535 -0.725259,-0.23408 z M 16.746363,44.796929 c -0.877562,-0.184658 -1.644524,-0.341435 -1.704357,-0.348384 -0.05984,-0.007 -0.108802,-0.08187 -0.108802,-0.166472 0,-0.14858 3.404663,-1.892027 3.69882,-1.894083 0.08982,-6.6e-4 0.127454,0.528406 0.09884,1.389207 -0.03185,0.958099 -0.09949,1.384818 -0.21757,1.372839 -0.09424,-0.0099 -0.889366,-0.16847 -1.76693,-0.353128 z m -3.046065,-2.555558 c -0.229279,-0.241376 -0.744834,-0.56228 -1.145665,-0.713097 -0.574574,-0.216177 -0.753468,-0.363237 -0.845447,-0.694966 -0.149545,-0.539307 -0.187258,-4.4734 -0.05051,-5.271065 0.09301,-0.542737 0.155559,-0.617196 0.586862,-0.698809 0.265501,-0.05027 0.728299,-0.259431 1.028425,-0.464859 l 0.545682,-0.373508 0.665584,0.383051 c 0.366068,0.210683 1.466875,0.791605 2.446232,1.290963 l 1.78065,0.907918 -0.04003,2.014207 -0.04004,2.014208 -2.158304,1.022428 c -1.187062,0.562335 -2.202904,1.022428 -2.257424,1.022428 -0.05453,0 -0.286723,-0.197492 -0.516013,-0.438889 z m 47.323503,-0.714238 c -0.974403,-0.527046 -0.978703,-0.532132 -0.979097,-1.156996 -4.37e-4,-0.651522 -0.404513,-1.629376 -0.898235,-2.173573 l -0.284895,-0.314018 1.490778,-2.685224 c 0.819929,-1.476875 1.657185,-2.997914 1.860573,-3.380083 0.261874,-0.492078 0.433282,-0.668192 0.587363,-0.603472 0.119673,0.05027 0.464942,0.140632 0.767271,0.200803 0.302333,0.06015 0.572762,0.134216 0.600951,0.16454 0.02818,0.03029 0.161176,0.680612 0.295503,1.445053 0.28188,1.60404 0.453677,5.500417 0.304479,6.905655 l -0.101974,0.960531 -0.55252,0.08913 c -0.303886,0.04908 -0.885399,0.320069 -1.292243,0.602344 -0.406848,0.282275 -0.757614,0.504564 -0.779482,0.493967 -0.02172,-0.01059 -0.480178,-0.257477 -1.018464,-0.548644 z M 16.673839,33.827351 c -1.077009,-0.564088 -1.943431,-1.090786 -1.925385,-1.170436 0.01809,-0.07958 0.07453,-0.425274 0.125484,-0.768045 0.07061,-0.474977 0.166309,-0.6403 0.402343,-0.694976 0.170327,-0.03941 0.990813,-0.235112 1.823305,-0.434785 0.832492,-0.199663 1.535929,-0.340546 1.563191,-0.313044 0.02725,0.02747 0.03151,1.0303 0.0094,2.228452 l -0.04015,2.178453 z m -2.621604,-4.764214 c -0.353132,-0.374779 -0.757987,-0.743216 -0.899674,-0.818738 -0.239978,-0.127941 -0.227869,-0.203506 0.177198,-1.104568 0.666883,-1.483485 1.95367,-3.671859 3.228677,-5.49084 0.634535,-0.905258 1.184416,-1.645926 1.221961,-1.645926 0.03756,0 0.260844,0.100429 0.496213,0.223202 l 0.427951,0.223201 v 4.163142 4.163129 l -0.326367,0.07459 c -0.179513,0.04104 -1.081813,0.259051 -2.005135,0.484401 l -1.678767,0.409771 z m 18.214127,-5.110452 c -0.144698,-0.16125 -0.610047,-0.464431 -1.034124,-0.673706 -0.901509,-0.444876 -0.781696,0.0086 -1.213179,-4.592659 -0.169778,-1.810516 -0.331596,-3.408843 -0.359594,-3.551837 -0.03663,-0.186993 0.146652,-0.360957 0.652774,-0.61965 l 0.703686,-0.359664 2.685068,2.19244 2.685063,2.192441 -0.215623,0.520536 c -0.235817,0.569316 -0.295944,1.507158 -0.14193,2.214457 0.09473,0.434981 0.05038,0.486618 -1.178857,1.37326 -0.7025,0.506703 -1.461787,1.073445 -1.687298,1.259436 -0.499834,0.412224 -0.56358,0.415416 -0.895984,0.04495 z m 10.091823,-5.815456 -0.630168,-0.821473 0.852185,-1.638584 0.852185,-1.638582 1.038039,-0.06721 c 1.418261,-0.09185 2.331862,-0.644143 3.024868,-1.828756 0.01059,-0.01824 0.781623,0.357526 1.71325,0.83499 1.897946,0.972713 4.089339,2.376949 4.211839,2.698938 0.102657,0.269855 -0.337486,0.409315 -8.606508,2.727031 -0.917453,0.257163 -1.703518,0.487247 -1.746811,0.511328 -0.04329,0.02421 -0.362286,-0.325888 -0.708879,-0.777697 z M 36.439937,16.646071 C 35.605116,15.979095 32.6197,13.525097 32.139135,13.11083 c -0.234621,-0.202248 0.242659,-1.470295 0.605898,-1.609756 0.66213,-0.254209 3.908277,-0.568893 5.868706,-0.568893 h 2.003947 l 0.270639,0.636848 c 0.148852,0.350273 0.483612,0.881501 0.743897,1.180508 l 0.473245,0.543649 -0.886324,1.709009 -0.886325,1.709008 -0.894615,0.10271 c -0.492037,0.05645 -1.139067,0.224688 -1.43784,0.373778 l -0.543227,0.271061 z"
       id="path3" />
  </g>
</svg>
